<?xml version="1.0" encoding="utf-8"?>
<!-- Generator: Adobe Illustrator 22.1.0, SVG Export Plug-In . SVG Version: 6.00 Build 0)  -->
<svg version="1.1" id="Layer_1" xmlns="http://www.w3.org/2000/svg" xmlns:xlink="http://www.w3.org/1999/xlink" x="0px" y="0px"
	 viewBox="0 0 865 865" style="enable-background:new 0 0 865 865;" xml:space="preserve">
<style type="text/css">
	.st0{fill:#111A24;stroke:#F2F2F2;stroke-width:15.01;stroke-miterlimit:10;}
	.st1{enable-background:new    ;}
	.st2{fill:#FFFFFF;}
</style>
<title>Asset 10</title>
<g id="Layer_2_1_">
	<g id="Layer_1-2">
		<rect x="7.5" y="7.5" class="st0" width="850" height="850"/>
		<g class="st1">
			<path class="st2" d="M116.8,477.9c15.1,0,22.6-5.8,22.6-17.3c0-6-3.3-10.5-10-13.3c-3.5-1.7-8.1-3.2-13.7-4.7
				c-5.6-1.4-10.3-2.9-14-4.4c-3.7-1.5-7.5-3.6-11.2-6.2c-7.4-5.3-11.1-13.4-11.1-24.4c0-11,4-19.7,12-26c8-6.3,18.4-9.5,31.3-9.5
				c12.9,0,24.9,2.5,35.9,7.4v27l-19.2,1.3v-10.5c0-1.8-0.3-3.1-0.8-4c-1.4-2.3-5.8-3.4-13.3-3.4c-7.5,0-13,1.3-16.6,3.8
				c-3.6,2.5-5.4,6.4-5.4,11.7c0,3.8,1.5,7.2,4.5,10.1c2,1.9,5,3.5,9,4.8c4,1.3,8.2,2.6,12.6,3.9c4.5,1.3,8.4,2.8,11.9,4.3
				c3.5,1.6,7.1,3.7,10.8,6.5c7.7,5.4,11.5,13.8,11.5,25.1c0,11.3-4.2,20.2-12.7,26.7c-8.5,6.5-19.7,9.7-33.6,9.7
				c-13.9,0-26.4-2.5-37.4-7.4v-28.5l19.2-1.3v11c0,1.8,0.3,3.1,0.8,4c0.5,0.8,2,1.7,4.6,2.4C107.2,477.5,111.2,477.9,116.8,477.9z"
				/>
			<path class="st2" d="M263.9,473v-31.2h-53.4v36.4l10.9,0.5v15.3h-45.7v-14.6l6.2-0.5c3.6-0.4,5.5-2,5.5-5v-83.8l-10.8-0.5v-15.3
				h45.7v14.6l-6.2,0.5c-2,0.2-3.5,0.8-4.3,1.5c-0.9,0.8-1.3,2.3-1.3,4.4v27.9h53.4v-33.2l-10.8-0.5v-15.3h45.7v14.6l-6.2,0.5
				c-3.6,0.4-5.5,2.3-5.5,5.8v83.1l10.8,0.5v15.3h-45.7v-14.6l6.2-0.5c1.9-0.2,3.3-0.8,4.2-1.5C263.5,476.7,263.9,475.2,263.9,473z"
				/>
			<path class="st2" d="M350.9,374.2l32.1,81.5h0.4l32.3-81.5H453v14.6l-6.2,0.5c-3.8,0.4-5.6,2.5-5.5,6.3l4.7,82.6l11.7,0.5v15.3
				h-45.5v-14.6l6.8-0.5c3.4-0.2,5-1.8,4.9-4.7l-3.6-63.7h-0.4l-29.1,71.9H373l-28.7-71.2h-0.4l-3.8,66.9l12.3,0.5v15.3h-44.5v-14.6
				l6.8-0.5c2.9-0.2,4.5-1.9,4.7-4.9l5.1-83.8l-11.5-0.7v-15.3H350.9z"/>
		</g>
		<path class="st2" d="M102.8,674.7h9.6l30.7,80.4h-16.3l-19.3-54.9l-19.3,54.9H72.1L102.8,674.7z M86.8,727.6h42.3v14.6H86.8
			L86.8,727.6z"/>
		<path class="st2" d="M153.2,674.7h15.2v80.5h-15.2V674.7z M159.2,708.2h28c1.4,0,2.9-0.4,4.1-1.2c1.2-0.8,2.2-2,2.7-3.3
			c0.7-1.6,1-3.3,1-5c0-1.7-0.3-3.4-1-5c-0.6-1.3-1.5-2.5-2.7-3.3c-1.2-0.8-2.7-1.2-4.1-1.2h-28v-14.6h29.2c4.1-0.1,8.1,1,11.7,3
			c3.4,2,6.1,4.9,7.8,8.4c3.7,8,3.7,17.3,0,25.3c-1.7,3.5-4.4,6.4-7.8,8.4c-3.5,2-7.6,3.1-11.6,3h-29.1L159.2,708.2z M176.1,720.3
			l16.2-2.5l21.7,37.4h-18.4L176.1,720.3z"/>
		<path class="st2" d="M239.3,752.3c-4.4-2.4-8-6-10.3-10.4c-2.5-4.8-3.8-10.2-3.6-15.6v-22.8c-0.1-5.4,1.1-10.7,3.6-15.5
			c2.4-4.4,5.9-8,10.3-10.4c9.7-4.9,21.1-4.9,30.8,0c4.4,2.4,8,6,10.3,10.4c2.5,4.8,3.8,10.2,3.6,15.6v22.8
			c0.1,5.4-1.1,10.8-3.6,15.6c-2.4,4.4-5.9,8-10.3,10.4C260.4,757.2,249,757.2,239.3,752.3L239.3,752.3z M261.9,739.1
			c2.1-1.2,3.7-2.9,4.8-5c1.2-2.3,1.7-4.8,1.7-7.4v-23.5c0.1-2.6-0.5-5.1-1.7-7.4c-1.1-2.1-2.7-3.8-4.8-5c-4.5-2.3-9.9-2.3-14.4,0
			c-2,1.2-3.7,2.9-4.8,5c-1.2,2.3-1.7,4.8-1.7,7.4v23.6c-0.1,2.6,0.5,5.1,1.7,7.4c1.1,2.1,2.7,3.8,4.8,5
			C252,741.5,257.4,741.5,261.9,739.1L261.9,739.1z M252.4,732.9l8.1-10.2l31.1,23.6l-8.1,10.3L252.4,732.9z"/>
		<path class="st2" d="M313.8,752.5c-4.3-2.3-7.8-5.9-10-10.2c-2.4-5-3.6-10.6-3.4-16.2v-51.3h15.2v51.7c0,4.6,1.2,8.2,3.7,10.7
			c2.5,2.5,6,3.8,10.4,3.8c4.5,0,8-1.3,10.5-3.8c2.5-2.5,3.8-6.1,3.8-10.8v-51.7h15.1V726c0.2,5.6-1,11.1-3.5,16.2
			c-2.2,4.4-5.7,8-10.1,10.2C335.5,757.1,323.9,757.1,313.8,752.5L313.8,752.5z"/>
		<path class="st2" d="M390.3,755.1h-15.7v-80.4h15.7V755.1z"/>
		<path class="st2" d="M395.8,674.7h59v14.6h-59V674.7z M417.7,681.3h15.1v73.8h-15.1V681.3z"/>
		<path class="st2" d="M461.4,674.7h15.1v80.4h-15.1V674.7z M466.9,674.7h48.4v14.6h-48.4V674.7z M466.9,707.9h42.3v14.6h-42.3
			V707.9z M466.9,740.5h48.4v14.6h-48.4V740.5z"/>
		<path class="st2" d="M518.1,674.7h59v14.6h-59V674.7z M540,681.3h15.2v73.8H540V681.3z"/>
		<path class="st2" d="M596,752.5c-4.3-2.3-7.8-5.9-10-10.2c-2.4-5-3.6-10.6-3.4-16.2v-51.3h15.2v51.7c0,4.6,1.2,8.2,3.7,10.7
			c2.5,2.5,6,3.8,10.5,3.8c4.5,0,8.1-1.3,10.5-3.8c2.5-2.5,3.7-6.1,3.7-10.7v-51.7h15.2V726c0.2,5.6-1,11.1-3.5,16.2
			c-2.2,4.4-5.7,8-10.1,10.2C617.7,757.1,606.1,757.1,596,752.5L596,752.5z"/>
		<path class="st2" d="M657.9,674.7h15.2v80.5h-15.2V674.7z M663.9,708.2h28c1.5,0,2.9-0.4,4.1-1.2c1.2-0.8,2.2-2,2.7-3.3
			c0.7-1.6,1-3.3,1-5c0-1.7-0.3-3.4-1-5c-0.6-1.3-1.5-2.5-2.7-3.3c-1.2-0.8-2.7-1.2-4.2-1.2h-28v-14.6h29.2c4.1-0.1,8.1,1,11.7,3
			c3.4,2,6.1,4.9,7.8,8.4c3.7,8,3.7,17.3,0,25.3c-1.7,3.5-4.5,6.4-7.8,8.4c-3.5,2-7.6,3.1-11.6,3h-29.1L663.9,708.2z M680.8,720.3
			l16.2-2.5l21.7,37.4h-18.3L680.8,720.3z"/>
		<path class="st2" d="M752.5,674.7h9.6l30.8,80.4h-16.3l-19.3-54.9l-19.3,54.9h-16.3L752.5,674.7z M736.5,727.6h42.3v14.6h-42.3
			L736.5,727.6z"/>
		<path class="st2" d="M79.8,564.8H95v80.4H79.8V564.8z M87.5,630.6h19.3c5,0,8.8-1.2,11.6-3.6c2.7-2.4,4.1-5.8,4.1-10.2v-23.7
			c0-4.4-1.4-7.8-4.1-10.2c-2.7-2.4-6.6-3.6-11.6-3.6H87.5v-14.6h19c6.7,0,12.4,1.1,17.2,3.4c4.5,2.1,8.3,5.5,10.8,9.8
			c2.6,4.8,3.9,10.2,3.7,15.6v22.8c0.1,5.3-1.1,10.5-3.6,15.2c-2.4,4.4-6.2,7.9-10.7,10.1c-4.7,2.4-10.6,3.6-17.5,3.6H87.5V630.6z"
			/>
		<path class="st2" d="M154.2,564.8h15.1v80.4h-15.1V564.8z M159.6,564.8H208v14.6h-48.4L159.6,564.8z M159.6,598H202v14.6h-42.4
			V598z M159.6,630.6H208v14.6h-48.4L159.6,630.6z"/>
		<path class="st2" d="M241.4,646l-5.5-1.2c-3.6-0.7-7-1.9-10.3-3.4c-3.1-1.4-6-3.2-8.7-5.4l7-12.5c3.2,2.6,6.8,4.6,10.7,5.9
			c4,1.4,8.2,2.1,12.5,2.1c4.9,0,8.8-0.8,11.5-2.5c2.6-1.4,4.2-4.2,4.1-7.1l0,0c0.1-1.9-0.6-3.7-1.8-5.1c-1.3-1.3-3-2.3-4.8-2.8
			c-2.5-0.7-5-1.2-7.5-1.6c-0.1,0-0.2-0.1-0.3-0.1c-0.1,0-0.2,0-0.3,0l-1.2-0.2c-4.6-0.6-9-1.7-13.4-3.2c-3.6-1.3-6.7-3.6-9-6.7
			c-2.5-3.2-3.7-7.7-3.7-13.6v-0.1c-0.1-4.7,1.1-9.3,3.5-13.3c2.4-3.8,6-6.7,10.1-8.4c5.1-2.1,10.5-3,16-2.9c3,0,5.9,0.3,8.8,1
			c3,0.7,6,1.6,8.8,2.9c2.9,1.3,5.6,2.8,8.2,4.5l-6.4,12.8c-3-2.1-6.3-3.8-9.7-5c-3.1-1.1-6.4-1.7-9.7-1.8c-4.7,0-8.3,0.8-10.8,2.3
			c-2.4,1.3-3.9,3.7-3.8,6.4v0.1c-0.1,2,0.6,4,2,5.5c1.4,1.4,3.1,2.4,4.9,3c2.7,0.8,5.5,1.5,8.2,2c0.1,0,0.3,0.1,0.4,0.1
			c0.1,0,0.3,0,0.4,0.1c0.2,0,0.4,0.1,0.6,0.1c0.2,0.1,0.4,0.1,0.6,0.1c4.4,0.8,8.6,2,12.8,3.6c3.4,1.4,6.4,3.8,8.5,6.9
			c2.3,3.2,3.4,7.5,3.4,12.9v0.1c0.1,4.6-1.1,9.2-3.6,13.2c-2.6,3.8-6.2,6.7-10.5,8.3c-5.3,2-10.9,3-16.5,2.8H241.4z"/>
		<path class="st2" d="M306.2,645.2h-15.7v-80.4h15.7V645.2z"/>
		<path class="st2" d="M380,600.2v15.7c0.1,5.5-1.1,10.9-3.6,15.8c-2.3,4.4-5.9,8.1-10.3,10.6c-4.7,2.6-10,3.8-15.4,3.7
			c-5.4,0.1-10.7-1.1-15.5-3.5c-4.4-2.2-8-5.7-10.4-9.9c-2.5-4.5-3.8-9.7-3.7-14.9V594c-0.1-5.5,1.1-10.9,3.6-15.8
			c2.3-4.4,5.9-8.1,10.2-10.6c4.7-2.6,10-3.8,15.4-3.7c4.6,0,9.1,1,13.3,3c4,1.9,7.5,4.8,10.2,8.4c2.8,3.7,4.6,8,5.5,12.6H363
			c-0.5-1.7-1.5-3.2-2.7-4.4c-1.3-1.2-2.8-2.2-4.5-2.8c-1.7-0.7-3.5-1-5.3-1c-2.5-0.1-4.9,0.6-7.1,1.8c-2,1.2-3.7,2.9-4.8,5
			c-1.2,2.3-1.7,4.9-1.7,7.5v23.7c0,2.3,0.5,4.6,1.7,6.6c1.2,1.9,2.8,3.5,4.9,4.4c2.3,1.1,4.8,1.6,7.3,1.5c2.5,0.1,5-0.5,7.2-1.7
			c2-1.1,3.7-2.8,4.7-4.9c1.2-2.4,1.7-5,1.7-7.6v-1.3h-12.2v-14.6L380,600.2z"/>
		<path class="st2" d="M396,564.8h18.5l29.9,61.6l-1.3,1.4v-63.1h14.5v80.4H439l-29.8-60.7l1.3-1.4v62.1H396L396,564.8z"/>
		<path class="st2" d="M538.5,602.8v10.7h-44.9v-10.7H538.5z M521.7,630.6h-11.3v-44.9h11.3V630.6z"/>
	</g>
</g>
</svg>
