<svg xmlns="http://www.w3.org/2000/svg" viewBox="0 0 865.01 865.01"><defs><style>.cls-1{fill:#fff;}.cls-2{fill:#111a24;}</style></defs><title>Asset 6</title><g id="Layer_2" data-name="Layer 2"><g id="Layer_1-2" data-name="Layer 1"><rect class="cls-1" width="865.01" height="865.01"/><rect class="cls-1" x="146.09" y="239.17" width="572.84" height="431.01"/><path class="cls-2" d="M718.92,239.17l-287.65,3L288.5,243.36l-142.41.87,5.06-5.06.69,215.51.24,215.5-6-6,143.21.15q71.59.07,143.21.28l143.2.48,143.21.8-4.28,4.28c.16-35.66.52-71.35.83-107.09l1.06-107.42Zm0,0,2.4,214.51,1.06,108.09c.3,36.09.66,72.24.83,108.41l0,4.26-4.31,0-143.21.79-143.2.48q-71.61.32-143.21.28l-143.21.16h-6v-6l.24-215.5.7-215.51,0-5.09,5,0,144,.88,143.65,1.21Z"/><rect class="cls-1" x="245.6" y="239.17" width="242.99" height="183.09"/><path class="cls-2" d="M488.59,239.17l-122.73,3-30.22.64c-10.05.22-20.09.44-30.09.58l-60,.87,5.06-5.06.7,91.55.24,91.54-6-6,60.75.15c20.25.06,40.49.08,60.74.28l60.75.49,60.75.79-4.29,4.28c.17-15,.52-30,.83-45.11s.63-30.2,1.06-45.44Zm0,0,2.4,90.55c.42,15.28.74,30.68,1.06,46.11s.66,30.92.82,46.43l.05,4.23-4.33.06-60.75.79-60.75.49c-20.25.2-40.49.22-60.74.28l-60.75.15-6,0v-6l.24-91.54.7-91.55,0-5.13,5,.08,61.55.87c10.24.13,20.45.35,30.65.57l30.53.64,60.56,1.43Z"/><rect class="cls-1" x="146.09" y="496.84" width="210.58" height="173.3"/><path class="cls-2" d="M356.67,496.84l-106.49,2.89L198,500.93l-51.86.84,4.93-4.93c.23,14.44.28,28.88.43,43.32l.38,43.33.25,86.64-6-6,52.64.09c17.55.09,35.1.11,52.65.3L304,665c17.55.16,35.1.49,52.65.72l-4.41,4.41.34-21.28.48-21.36c.36-14.26.63-28.55,1.09-43Zm0,0,2.5,85.61c.45,14.46.73,29.06,1.08,43.68l.49,22,.34,22,.06,4.35-4.47.06c-17.55.24-35.1.56-52.65.73l-52.64.46c-17.55.19-35.1.22-52.65.31l-52.64.09h-6l0-6,.25-86.64.38-43.33c.15-14.44.2-28.88.43-43.32l.08-5,4.86.07,53.42.84,53.07,1.2L305,495.35Z"/><rect class="cls-1" x="146.09" y="239.17" width="99.51" height="183.09"/><path class="cls-2" d="M146.09,239.17l48.91-2,25.15-1,25.45-.73,3.62-.11.12,3.84c.47,15.26.67,30.52,1,45.77s.53,30.52.73,45.78.32,30.51.38,45.77.1,30.52.15,45.77l0,6-6,0c-16.59,0-33.17,0-49.76-.16L171,427.91l-24.88-.26-5.46-.06.08-5.33.34-23.34.52-23.29.54-23.21.71-23.05.74-22.91.81-22.68Zm0,0,1.71,46.94.82,23.09.73,22.87.71,22.72.55,22.56.51,22.49.35,22.42-5.38-5.38,24.88-.27,24.87-.18c16.59-.13,33.17-.13,49.76-.16l-6,6c.05-15.25,0-30.51.15-45.77s.22-30.51.38-45.77.39-30.52.73-45.78.53-30.51,1-45.77l3.74,3.74-24.31-.74-24.6-1Z"/><path class="cls-2" d="M322.57,414.42c-1.07-4.27-1.85-8.54-2.53-12.81s-1.2-8.54-1.66-12.81-.82-8.55-1.07-12.82c-.15-2.13-.25-4.27-.34-6.4s-.18-4.27-.23-6.41l7.23,5.67-.83.26-.95.33-1.93.71c-1.3.48-2.58,1-3.86,1.57-2.55,1.12-5.06,2.35-7.48,3.7A68.09,68.09,0,0,0,295.49,385a52,52,0,0,0-10.33,12.92,67.06,67.06,0,0,0-6.31,16.54,38.36,38.36,0,0,1-1.09-9.36,39.14,39.14,0,0,1,1.22-9.58A45,45,0,0,1,288,378a58.83,58.83,0,0,1,15-12.79,70.77,70.77,0,0,1,8.71-4.46c1.51-.63,3-1.23,4.58-1.76.78-.27,1.56-.52,2.36-.75l1.22-.34,1.35-.34,7.41-1.88-.17,7.54c-.05,2.14-.12,4.27-.23,6.41s-.2,4.27-.35,6.4c-.25,4.27-.63,8.55-1.07,12.82s-1,8.54-1.66,12.81S323.64,410.15,322.57,414.42Z"/><path class="cls-2" d="M714.92,417.84c-4.83,1.07-9.66,1.85-14.49,2.53s-9.66,1.2-14.49,1.66-9.66.82-14.49,1.07c-2.42.15-4.83.25-7.25.34s-4.83.19-7.24.23l5.66-7.23.31,1,.37,1.1.8,2.21c.55,1.48,1.17,2.95,1.79,4.41,1.28,2.91,2.68,5.78,4.24,8.54a75.42,75.42,0,0,0,11,15.3,57.94,57.94,0,0,0,14.91,11.59,73.4,73.4,0,0,0,18.87,6.74,45.64,45.64,0,0,1-21.27-.56,51,51,0,0,1-19.52-10.26,66.37,66.37,0,0,1-14.26-16.84,80.93,80.93,0,0,1-5-9.77c-.71-1.69-1.38-3.39-2-5.13-.31-.87-.59-1.75-.85-2.65l-.39-1.35-.38-1.5-1.89-7.39L657,412c2.41.05,4.83.12,7.24.23s4.83.2,7.25.35c4.83.25,9.66.63,14.49,1.07s9.66,1,14.49,1.66S710.09,416.77,714.92,417.84Z"/><path class="cls-2" d="M260.36,501.92c1.07,4.27,1.85,8.54,2.53,12.81s1.19,8.54,1.66,12.81.81,8.55,1.06,12.82c.15,2.13.26,4.27.35,6.4s.18,4.28.23,6.41L259,547.51l.84-.27.95-.33,1.93-.71c1.29-.48,2.58-1,3.86-1.57,2.55-1.12,5.06-2.34,7.48-3.7a67.68,67.68,0,0,0,13.43-9.55,51.39,51.39,0,0,0,10.33-12.92,67.48,67.48,0,0,0,6.32-16.54,38.35,38.35,0,0,1,1.08,9.36,39.14,39.14,0,0,1-1.22,9.58,45,45,0,0,1-9,17.53,58.67,58.67,0,0,1-15,12.8,70.83,70.83,0,0,1-8.72,4.45q-2.25,1-4.57,1.76c-.78.27-1.56.52-2.37.75l-1.21.34-1.35.35-7.41,1.87.17-7.54c0-2.13.12-4.27.23-6.41s.2-4.27.35-6.4c.25-4.27.63-8.54,1.06-12.82s1-8.54,1.67-12.81S259.28,506.19,260.36,501.92Z"/><path class="cls-2" d="M238,284.17c-3.84,1.07-7.69,1.86-11.53,2.53s-7.69,1.2-11.54,1.66-7.69.82-11.53,1.07c-1.93.15-3.85.26-5.77.35s-3.85.18-5.77.23l5.67-7.24.23.72.3.85.63,1.71c.43,1.16.92,2.3,1.41,3.44,1,2.28,2.09,4.52,3.29,6.68a62.3,62.3,0,0,0,8.43,12,47.3,47.3,0,0,0,11.41,9.37,62.62,62.62,0,0,0,14.77,6,34.73,34.73,0,0,1-17.17.19,40.42,40.42,0,0,1-16-8,52.32,52.32,0,0,1-11.68-13.57,61.29,61.29,0,0,1-4-7.9c-.58-1.37-1.12-2.74-1.59-4.16-.25-.7-.47-1.42-.68-2.15l-.31-1.1-.31-1.25-1.87-7.43,7.53.2c1.92,0,3.85.12,5.77.23s3.84.19,5.77.34c3.84.25,7.69.64,11.53,1.07s7.69,1,11.54,1.66S234.12,283.1,238,284.17Z"/><rect class="cls-1" x="231.84" y="662.51" width="68.91" height="14.67"/><path class="cls-2" d="M300.75,677.17c-5,.76-10.31,1.44-15.81,2.09s-11.21,1.24-17,1.78-11.81,1-17.85,1.29c-3,.18-6,.31-9.08.41s-6.08.22-9.13.26l-5.72.09-.11-5.92c0-2.44-.11-4.89-.11-7.33l-.05-7.33,0-6,6,0c5.75,0,11.49.06,17.23.21s11.49.35,17.23.64,11.48.68,17.22,1.15,11.49,1.07,17.23,1.77l2.43.3-.21,1.93c-.29,2.7-.68,5.34-1.08,7.8S301.07,675.05,300.75,677.17Zm0,0c-.32-2.77-.74-5.38-1.14-7.8s-.79-4.68-1.08-6.86l2.22,2.22q-8.61,1-17.23,1.77t-17.22,1.15q-8.61.44-17.23.64c-5.74.15-11.48.19-17.23.21l6-6-.05,7.33c0,2.44-.07,4.89-.12,7.33l-5.83-5.83c2.7,0,5.4.13,8.11.26s5.41.24,8.14.42c5.44.31,11,.78,16.61,1.29s11.42,1.12,17.41,1.78Z"/><rect class="cls-1" x="373.18" y="231.84" width="58.07" height="14.67"/><path class="cls-2" d="M431.25,246.51c-8.24,1.45-17.63,2.71-27.47,3.78-4.93.51-10,1-15.12,1.29s-10.3.58-15.48.71l-5.66.15-.13-5.94c-.05-2.44-.13-4.88-.16-7.33l-.05-7.33-.05-6h6.05c4.84,0,9.68.07,14.52.2s9.67.32,14.51.6c9.68.55,19.36,1.4,29,2.71l2.75.37-.26,2.12c-.33,2.74-.76,5.4-1.2,7.86Zm0,0c-.2-1.42-.38-2.77-.61-4.09l-.68-3.78c-.44-2.42-.87-4.65-1.2-6.8l2.49,2.49c-9.68,1.3-19.36,2.16-29,2.7q-7.26.42-14.51.61t-14.52.2l6-6-.06,7.33c0,2.45-.1,4.89-.16,7.33l-5.78-5.78c4.5.13,9,.36,13.55.71s9.17.78,13.91,1.29C410.17,243.79,420.13,245.05,431.25,246.51Z"/><rect class="cls-1" x="521.35" y="662.51" width="75.9" height="14.67"/><path class="cls-2" d="M597.25,677.17c-5.56.77-11.46,1.46-17.54,2.11s-12.38,1.26-18.8,1.79c-3.21.26-6.45.52-9.72.72s-6.57.42-9.88.58c-6.61.33-13.29.55-20,.66l-5.71.08-.15-5.94c-.12-4.89-.1-9.78-.14-14.66l-.06-6,6.06,0c6.32,0,12.65.06,19,.21s12.65.37,19,.67l9.49.52c3.16.23,6.32.41,9.48.68q9.5.72,19,1.83l2.27.27-.19,1.82c-.28,2.68-.64,5.31-1,7.77S597.55,675,597.25,677.17Zm0,0c-.3-2.75-.68-5.34-1.06-7.77s-.74-4.7-1-6.89l2.08,2.08q-9.5,1.1-19,1.83c-3.16.27-6.32.45-9.48.68l-9.49.52q-9.49.45-19,.67c-6.32.15-12.65.19-19,.21l6-6c0,4.88,0,9.77-.14,14.66l-5.85-5.85c6,.1,11.95.32,18,.66,3,.16,6,.34,9.1.57s6.14.46,9.25.72c6.23.53,12.59,1.12,19.16,1.79S590.16,676.4,597.25,677.17Z"/></g></g></svg>