<svg xmlns="http://www.w3.org/2000/svg" viewBox="0 0 865.01 865.01"><defs><style>.cls-1{fill:#fff;}.cls-2{fill:#111a24;}</style></defs><title>Asset 7</title><g id="Layer_2" data-name="Layer 2"><g id="Layer_1-2" data-name="Layer 1"><rect class="cls-1" width="865.01" height="865.01"/><rect class="cls-1" x="223.28" y="435.8" width="418.45" height="247.82"/><path class="cls-2" d="M641.73,435.8,431.19,439l-52.15.71-52,.54c-34.64.34-69.21.7-103.77.83l5.25-5.25.32,61.95.15,31,.07,31,.21,123.91-6-6,104.61.17,52.31.1,52.31.26,52.3.27,26.15.13,26.16.22,104.61.94-3.91,3.91.78-61.36c.25-20.48.67-41,1-61.67Zm0,0,2.14,123c.32,20.69.74,41.42,1,62.24l.78,62.56.05,3.87-4,0-104.61.93-26.16.22-26.15.13-52.3.27-52.31.27-52.31.09-104.61.17h-6v-6l.21-123.91.06-31,.16-31L218,435.8l0-5.28,5.23,0c35.18.13,70.35.49,105.46.83l52.61.54,52.47.71,104.43,1.51Z"/><polyline class="cls-1" points="168.14 443.88 430.63 181.39 696.87 447.63"/><path class="cls-2" d="M168.14,443.88c21-22.8,42.27-45.23,63.57-67.68l32.11-33.51c10.69-11.18,21.53-22.22,32.28-33.34C317.59,287.09,339.36,265.12,361,243s43.52-44,65.37-65.87l4.24-4.24,4.24,4.24,33.24,33.33,33.11,33.44,33,33.58,16.48,16.8,16.39,16.89C578,322.46,589,333.68,599.82,345l32.58,34c21.6,22.77,43.23,45.51,64.47,68.65-23.14-21.23-45.88-42.87-68.66-64.46l-34-32.58c-11.32-10.87-22.53-21.84-33.81-32.75l-16.89-16.39L526.74,285l-33.58-33-33.45-33.11-33.32-33.24h8.48Q402,218.4,369,251c-22.1,21.65-44.07,43.42-66.33,64.91-11.12,10.76-22.16,21.59-33.34,32.28l-33.51,32.12C213.38,401.62,191,422.94,168.14,443.88Z"/><polyline class="cls-1" points="556.94 272.96 556.94 220.29 620.94 220.29 620.94 332.96"/><path class="cls-2" d="M556.94,273c-.6-4.39-1.1-8.78-1.55-13.17s-.84-8.78-1.19-13.17-.68-8.77-1-13.16-.54-8.78-.76-13.17l-.22-4.23,4.69-.24c5.33-.27,10.67-.52,16-.7l8-.28,8-.19c5.33-.16,10.67-.18,16-.28l16-.07,6,0,0,6c0,9.39-.11,18.78-.34,28.17s-.54,18.77-1,28.16-1,18.78-1.76,28.17-1.62,18.78-2.91,28.17c-1.29-9.39-2.15-18.78-2.91-28.17s-1.3-18.78-1.76-28.17-.78-18.77-1-28.16-.32-18.78-.34-28.17l6,6-16-.07c-5.33-.1-10.67-.12-16-.28l-8-.19-8-.28c-5.33-.18-10.67-.43-16-.7l4.47-4.47q-.33,6.59-.77,13.17c-.28,4.39-.59,8.77-1,13.16s-.75,8.78-1.19,13.17S557.53,268.57,556.94,273Z"/></g></g></svg>