<svg xmlns="http://www.w3.org/2000/svg" viewBox="0 0 865.01 865.01"><defs><style>.cls-1{fill:#fff;}.cls-2{fill:#111a24;}</style></defs><title>Asset 8</title><g id="Layer_2" data-name="Layer 2"><g id="Layer_1-2" data-name="Layer 1"><rect class="cls-1" width="865.01" height="865.01"/><rect class="cls-1" x="75.93" y="559.38" width="178.29" height="107.75"/><path class="cls-2" d="M254.64,667.56c-13.85,1.06-28.3,1.85-42.94,2.6s-29.6,1.29-44.67,1.68l-11.33.26-11.38.19q-11.37.16-22.83,0c-15.26-.19-30.51-1-45.56-1.82l-3.51-.18.18-3.16q.38-6.72.65-13.46t.53-13.47q.41-13.47.34-26.94c0-4.49-.06-9-.12-13.47l-.3-13.47-.47-13.47-.58-13.47-.14-3.13,3.42-.15c14.86-.67,29.72-1.41,44.58-1.81s29.71-.62,44.57-.91l22.28-.33c7.43-.08,14.86-.14,22.29-.11q22.28,0,44.57.61l6,.16-.15,5.67c-.26,9.32-.44,18.64-.86,27.89l-.58,13.83c-.2,4.59-.48,9.14-.71,13.68-.45,9.09-1,18-1.56,26.86Zm-.85-.85-1.69-28c-.53-9.14-1.11-18.16-1.56-27l-.71-13.25-.58-13.11c-.42-8.71-.6-17.35-.86-26l5.83,5.83q-22.29.57-44.57.61c-7.43,0-14.86,0-22.29-.11l-22.28-.33c-14.86-.29-29.72-.51-44.57-.91s-29.72-1.14-44.58-1.8l3.29-3.29-.59,13.47-.46,13.47-.3,13.47c-.07,4.49-.12,9-.12,13.47q0,13.47.34,26.94.21,6.74.52,13.47c.2,4.49.41,9,.66,13.46l-3.34-3.33c14.68-.77,29.14-1.63,43.59-1.82q10.85-.18,21.74,0l10.91.19,11,.26c14.64.39,29.41,1,44.46,1.68S237.94,665.65,253.79,666.71Z"/><rect class="cls-1" x="254.22" y="559.38" width="178.29" height="107.75"/><path class="cls-2" d="M432.93,667.56c-13.86,1.06-28.31,1.85-42.94,2.6s-29.6,1.29-44.68,1.68L334,672.1l-11.37.19q-11.39.16-22.84,0c-15.25-.19-30.51-1-45.55-1.82l-3.51-.18.17-3.16q.38-6.72.66-13.46t.53-13.47c.27-9,.36-18,.34-26.94,0-4.49-.06-9-.12-13.47l-.3-13.47-.47-13.47-.59-13.47-.13-3.13,3.42-.15c14.86-.67,29.71-1.41,44.57-1.81s29.71-.62,44.57-.91l22.29-.33c7.43-.08,14.85-.14,22.28-.11q22.29,0,44.57.61l6,.16-.16,5.67c-.25,9.32-.44,18.64-.86,27.89l-.58,13.83c-.2,4.59-.47,9.14-.7,13.68-.46,9.09-1,18-1.57,26.86Zm-.85-.85-1.69-28c-.53-9.14-1.11-18.16-1.57-27l-.7-13.25-.58-13.11c-.42-8.71-.61-17.35-.86-26l5.82,5.83q-22.28.57-44.57.61c-7.43,0-14.85,0-22.28-.11l-22.29-.33c-14.86-.29-29.71-.51-44.57-.91s-29.71-1.14-44.57-1.8l3.28-3.29-.58,13.47-.47,13.47-.3,13.47c-.06,4.49-.11,9-.12,13.47,0,9,.07,18,.34,26.94q.21,6.74.53,13.47c.19,4.49.4,9,.66,13.46l-3.34-3.33c14.67-.77,29.13-1.63,43.59-1.82q10.83-.18,21.73,0l10.92.19,11,.26c14.64.39,29.41,1,44.47,1.68S416.22,665.65,432.08,666.71Z"/><rect class="cls-1" x="165.08" y="451.63" width="178.29" height="107.75"/><path class="cls-2" d="M343.79,559.81c-13.86,1.05-28.31,1.85-42.94,2.6s-29.61,1.28-44.68,1.68l-11.33.26-11.37.18q-11.39.18-22.84,0c-15.26-.19-30.51-1-45.55-1.82l-3.52-.18.18-3.16c.25-4.49.46-9,.66-13.47s.38-9,.52-13.47q.41-13.47.34-26.93c0-4.49,0-9-.12-13.47l-.3-13.47-.46-13.47-.59-13.47-.13-3.13,3.42-.16c14.85-.66,29.71-1.41,44.57-1.8s29.71-.62,44.57-.91l22.28-.33c7.43-.08,14.86-.14,22.29-.11q22.29,0,44.57.61l6,.16-.16,5.67c-.26,9.32-.44,18.64-.86,27.89l-.58,13.82c-.2,4.6-.47,9.15-.71,13.69-.45,9.09-1,18-1.56,26.85Zm-.85-.85-1.7-28c-.52-9.13-1.1-18.15-1.56-27l-.7-13.25-.59-13.11c-.42-8.71-.6-17.35-.86-26l5.83,5.83q-22.29.57-44.57.61c-7.43,0-14.86,0-22.29-.11l-22.28-.33c-14.86-.29-29.71-.51-44.57-.91s-29.72-1.14-44.57-1.81l3.28-3.28-.58,13.47-.47,13.47L167,492c-.06,4.49-.12,9-.12,13.47q0,13.47.34,26.93.21,6.73.53,13.47t.65,13.47l-3.33-3.33c14.67-.77,29.13-1.63,43.58-1.82,7.23-.13,14.47-.11,21.74,0l10.91.18,11,.26c14.64.4,29.41,1,44.46,1.69S327.08,557.9,342.94,559Z"/><rect class="cls-1" x="343.36" y="451.63" width="178.29" height="107.75"/><path class="cls-2" d="M521.22,452.05c-15.85,1.06-31.12,1.85-46.2,2.61s-29.82,1.28-44.47,1.68l-10.95.26-10.91.18c-7.28.11-14.51.13-21.74,0-14.46-.2-28.92-1.05-43.59-1.82l3.34-3.34q-.37,6.74-.66,13.47c-.22,4.49-.38,9-.53,13.47-.27,9-.36,18-.34,26.94q0,6.74.13,13.47l.3,13.46.46,13.47.59,13.47-3.29-3.28c14.86-.67,29.72-1.41,44.57-1.81s29.72-.62,44.57-.91l22.29-.33c7.43-.08,14.86-.14,22.29-.11q22.28,0,44.57.61l-5.83,5.83c.26-8.64.44-17.27.86-26l.58-13.11L518,507c.45-8.87,1-17.89,1.56-27Zm.85-.84,1.7,25.92c.52,8.82,1.1,17.76,1.56,26.85.23,4.54.5,9.09.7,13.69l.59,13.83c.42,9.24.6,18.56.86,27.88l.15,5.68-6,.15q-22.29.57-44.57.61c-7.43,0-14.86,0-22.29-.11l-22.29-.33c-14.85-.29-29.71-.51-44.57-.91s-29.71-1.14-44.57-1.8l-3.42-.16.14-3.13.58-13.47.47-13.47.3-13.46c.06-4.49.11-9,.12-13.47,0-9-.07-18-.34-26.94q-.21-6.74-.53-13.47T340,451.63l-.18-3.16,3.51-.18c15-.77,30.3-1.62,45.56-1.82,7.63-.12,15.25-.1,22.83,0l11.38.18,11.33.26c15.07.4,30,1,44.67,1.68S508.22,450.15,522.07,451.21Z"/><rect class="cls-1" x="521.65" y="451.63" width="178.29" height="107.75"/><path class="cls-2" d="M699.51,452.05c-15.86,1.06-31.12,1.85-46.2,2.61s-29.83,1.28-44.47,1.68l-11,.26-10.91.18c-7.27.11-14.51.13-21.73,0-14.46-.2-28.92-1.05-43.59-1.82l3.33-3.34q-.37,6.74-.65,13.47t-.53,13.47c-.27,9-.36,18-.34,26.94,0,4.49.06,9,.12,13.47l.3,13.46.47,13.47.58,13.47-3.28-3.28c14.86-.67,29.71-1.41,44.57-1.81s29.71-.62,44.57-.91l22.29-.33c7.42-.08,14.85-.14,22.28-.11q22.29,0,44.57.61l-5.82,5.83c.25-8.64.43-17.27.86-26l.58-13.11.7-13.25c.46-8.87,1-17.89,1.56-27Zm.85-.84,1.69,25.92c.53,8.82,1.11,17.76,1.57,26.85.23,4.54.5,9.09.7,13.69l.58,13.83c.42,9.24.6,18.56.86,27.88l.16,5.68-6,.15q-22.27.57-44.57.61c-7.43,0-14.86,0-22.28-.11l-22.29-.33c-14.86-.29-29.71-.51-44.57-.91s-29.71-1.14-44.57-1.8l-3.42-.16.13-3.13.59-13.47.46-13.47.3-13.46q.1-6.74.13-13.47c0-9-.07-18-.34-26.94-.15-4.49-.31-9-.53-13.47s-.41-9-.66-13.47l-.18-3.16,3.52-.18c15-.77,30.29-1.62,45.55-1.82,7.63-.12,15.25-.1,22.84,0l11.37.18,11.33.26c15.07.4,30,1,44.68,1.68S686.5,450.15,700.36,451.21Z"/><rect class="cls-1" x="432.51" y="559.38" width="178.29" height="107.75"/><path class="cls-2" d="M610.37,559.81c-15.86,1.05-31.12,1.85-46.21,2.6s-29.82,1.28-44.46,1.68l-11,.26-10.91.18q-10.9.18-21.74,0c-14.45-.19-28.91-1-43.58-1.82l3.33-3.34q-.37,6.74-.65,13.47t-.53,13.47q-.41,13.47-.34,26.94c0,4.49.06,9,.12,13.47l.3,13.47.46,13.47.59,13.46-3.28-3.28c14.85-.67,29.71-1.41,44.57-1.81s29.71-.61,44.57-.91l22.28-.33c7.43-.08,14.86-.14,22.29-.11q22.29,0,44.57.62L605,667.13c.26-8.64.44-17.27.86-26l.59-13.11.7-13.25c.45-8.86,1-17.88,1.56-27Zm.84-.85,1.7,25.92c.53,8.82,1.11,17.76,1.56,26.85.23,4.54.51,9.1.71,13.69l.58,13.83c.42,9.24.6,18.57.86,27.88l.15,5.68-6,.15q-22.29.57-44.57.62c-7.43,0-14.86,0-22.29-.11l-22.28-.33c-14.86-.3-29.72-.51-44.57-.91s-29.72-1.14-44.57-1.81l-3.43-.15.14-3.14.59-13.46.46-13.47.3-13.47c.07-4.49.12-9,.12-13.47q0-13.47-.34-26.94-.21-6.74-.53-13.47t-.65-13.47l-.18-3.15,3.52-.18c15-.77,30.29-1.63,45.55-1.82,7.63-.13,15.25-.11,22.84,0l11.37.18,11.33.26c15.07.4,30,1,44.68,1.69S597.36,557.9,611.21,559Z"/><rect class="cls-1" x="254.22" y="343.88" width="178.29" height="107.75"/><path class="cls-2" d="M432.93,452.05c-13.86,1.06-28.31,1.85-42.94,2.61s-29.6,1.28-44.68,1.68L334,456.6l-11.37.18c-7.59.11-15.21.13-22.84,0-15.25-.2-30.51-1.05-45.55-1.82l-3.51-.18.17-3.16q.38-6.74.66-13.47t.53-13.47c.27-9,.36-18,.34-26.94,0-4.49-.06-9-.12-13.47l-.3-13.46-.47-13.47-.59-13.47-.13-3.13,3.42-.16c14.86-.66,29.71-1.41,44.57-1.8s29.71-.62,44.57-.91l22.29-.33c7.43-.09,14.85-.14,22.28-.11q22.29,0,44.57.61l6,.15-.16,5.68c-.25,9.32-.44,18.64-.86,27.88l-.58,13.83c-.2,4.6-.47,9.15-.7,13.69-.46,9.09-1,18-1.57,26.85Zm-.85-.84-1.69-28c-.53-9.13-1.11-18.15-1.57-27l-.7-13.25-.58-13.11c-.42-8.72-.61-17.35-.86-26l5.82,5.82q-22.28.57-44.57.62c-7.43,0-14.85,0-22.28-.11l-22.29-.33c-14.86-.29-29.71-.51-44.57-.91s-29.71-1.14-44.57-1.81l3.28-3.28-.58,13.47-.47,13.47-.3,13.46c-.06,4.49-.11,9-.12,13.47,0,9,.07,18,.34,26.94q.21,6.74.53,13.47c.19,4.49.4,9,.66,13.47l-3.34-3.34c14.67-.77,29.13-1.62,43.59-1.82,7.22-.12,14.46-.1,21.73,0l10.92.18,11,.26c14.64.4,29.41,1,44.47,1.68S416.22,450.15,432.08,451.21Z"/><rect class="cls-1" x="343.36" y="236.12" width="178.29" height="107.75"/><path class="cls-2" d="M521.22,236.55c-15.85,1.06-31.12,1.85-46.2,2.6s-29.82,1.29-44.47,1.68l-10.95.26-10.91.19c-7.28.11-14.51.12-21.74,0-14.46-.19-28.92-1.05-43.59-1.82l3.34-3.34q-.37,6.74-.66,13.47c-.22,4.49-.38,9-.53,13.47-.27,9-.36,18-.34,26.94q0,6.74.13,13.47l.3,13.47.46,13.47.59,13.47-3.29-3.29c14.86-.66,29.72-1.41,44.57-1.8s29.72-.62,44.57-.91l22.29-.33c7.43-.09,14.86-.14,22.29-.11q22.28,0,44.57.61l-5.83,5.83c.26-8.64.44-17.28.86-26l.58-13.11.71-13.25c.45-8.87,1-17.89,1.56-27Zm.85-.85,1.7,25.92c.52,8.83,1.1,17.77,1.56,26.86.23,4.54.5,9.09.7,13.68l.59,13.83c.42,9.25.6,18.57.86,27.89l.15,5.67-6,.15q-22.29.57-44.57.62c-7.43,0-14.86,0-22.29-.11l-22.29-.33c-14.85-.29-29.71-.51-44.57-.91s-29.71-1.14-44.57-1.81l-3.42-.15.14-3.13.58-13.47.47-13.47.3-13.47c.06-4.49.11-9,.12-13.47,0-9-.07-18-.34-26.94q-.21-6.74-.53-13.47T340,236.12l-.18-3.15,3.51-.18c15-.77,30.3-1.63,45.56-1.82,7.63-.13,15.25-.11,22.83,0l11.38.19,11.33.26c15.07.39,30,1,44.67,1.68S508.22,234.64,522.07,235.7Z"/><rect class="cls-1" x="432.51" y="343.88" width="178.29" height="107.75"/><path class="cls-2" d="M610.37,344.3c-15.86,1.06-31.12,1.85-46.21,2.6s-29.82,1.29-44.46,1.69l-11,.26-10.91.18c-7.27.11-14.51.13-21.74,0-14.45-.19-28.91-1-43.58-1.82l3.33-3.33q-.37,6.74-.65,13.47t-.53,13.47q-.41,13.46-.34,26.93c0,4.49.06,9,.12,13.47l.3,13.47.46,13.47.59,13.47-3.28-3.29c14.85-.66,29.71-1.41,44.57-1.8s29.71-.62,44.57-.91l22.28-.33c7.43-.08,14.86-.14,22.29-.11q22.29,0,44.57.61L605,451.63c.26-8.64.44-17.28.86-26l.59-13.11.7-13.25c.45-8.87,1-17.89,1.56-27Zm.84-.85,1.7,25.93c.53,8.82,1.11,17.76,1.56,26.85.23,4.54.51,9.09.71,13.69l.58,13.82c.42,9.25.6,18.57.86,27.89l.15,5.67-6,.16q-22.29.57-44.57.61c-7.43,0-14.86,0-22.29-.11l-22.28-.33c-14.86-.29-29.72-.51-44.57-.91s-29.72-1.14-44.57-1.81l-3.43-.15.14-3.13.59-13.47.46-13.47.3-13.47c.07-4.49.12-9,.12-13.47q0-13.47-.34-26.93-.21-6.74-.53-13.47t-.65-13.47l-.18-3.16,3.52-.18c15-.77,30.29-1.63,45.55-1.82q11.44-.18,22.84,0l11.37.18,11.33.26c15.07.4,30,1,44.68,1.68S597.36,342.4,611.21,343.45Z"/><rect class="cls-1" x="610.79" y="559.38" width="178.29" height="107.75"/><path class="cls-2" d="M788.65,559.81c-15.86,1.05-31.12,1.85-46.2,2.6s-29.83,1.28-44.47,1.68l-11,.26-10.92.18c-7.27.12-14.5.13-21.73,0-14.46-.19-28.92-1-43.59-1.82l3.34-3.34q-.37,6.74-.66,13.47t-.53,13.47c-.27,9-.36,18-.34,26.94,0,4.49.06,9,.12,13.47l.3,13.47.47,13.47.59,13.46-3.29-3.28c14.86-.67,29.72-1.41,44.57-1.81s29.72-.61,44.57-.91l22.29-.33c7.43-.08,14.86-.14,22.28-.11q22.29,0,44.58.62l-5.83,5.82c.25-8.64.44-17.27.86-26l.58-13.11.7-13.25c.46-8.86,1-17.88,1.57-27Zm.85-.85,1.7,25.92c.52,8.82,1.1,17.76,1.56,26.85.23,4.54.5,9.1.7,13.69l.58,13.83c.43,9.24.61,18.57.86,27.88l.16,5.68-6,.15q-22.29.57-44.58.62c-7.42,0-14.85,0-22.28-.11l-22.29-.33c-14.85-.3-29.71-.51-44.57-.91s-29.71-1.14-44.57-1.81l-3.42-.15.14-3.14.58-13.46.47-13.47.3-13.47c.06-4.49.11-9,.12-13.47,0-9-.07-18-.34-26.94q-.21-6.74-.53-13.47c-.19-4.49-.4-9-.66-13.47l-.17-3.15,3.51-.18c15-.77,30.3-1.63,45.56-1.82,7.63-.13,15.25-.11,22.83,0l11.37.18,11.33.26c15.08.4,30,1,44.68,1.69S775.64,557.9,789.5,559Z"/></g></g></svg>