<svg xmlns="http://www.w3.org/2000/svg" viewBox="0 0 865.01 865.01"><defs><style>.cls-1{fill:#fff;}.cls-2{fill:#111a24;}</style></defs><title>Asset 9</title><g id="Layer_2" data-name="Layer 2"><g id="Layer_1-2" data-name="Layer 1"><rect class="cls-1" width="865.01" height="865.01"/><rect class="cls-1" x="223.28" y="184.68" width="418.45" height="495.64"/><path class="cls-2" d="M641.31,185.11c-35.63.81-70.84,1.45-105.9,2.08l-52.43.88-52.19.76c-34.69.36-69.34.84-103.87,1l-51.83.27-25.9,0L223.28,190l5.31-5.31c-.14,20.66-.28,41.31-.59,62s-.58,41.3-.93,61.95l-1,62-.43,31-.28,31c-.22,20.65-.25,41.3-.29,61.95l.17,62q.33,62,1.31,123.91L223.28,677c34.87-.47,69.74-1,104.61-1.42l26.16-.29,26.15-.2,52.3-.36,104.62-.58,52.3-.24,52.31-.07-6.45,6.45q0-61.4.52-122.78l.61-61.51.34-30.79.42-30.85.88-61.86,1-62.13Zm.85-.85,2.25,122.52,1,61.78.89,62.05.41,31.1.34,31.17.61,62.41c.3,41.64.55,83.35.52,125v6.45h-6.44l-52.31-.07-52.3-.24-104.62-.58-52.3-.35-26.15-.2-26.16-.3c-34.87-.37-69.74-.95-104.61-1.42l-3.33,0,0-3.24q.88-62,1.32-123.91l.16-62c0-20.65-.06-41.3-.28-61.95l-.29-31-.42-31-1-62q-.53-31-.93-61.95c-.31-20.65-.46-41.3-.59-62l0-5.29h5.34l26.4-.09,26.4,0,52.79.26c35.2.13,70.3.61,105.35,1l52.42.77,52.18.87C573.5,182.81,608,183.45,642.16,184.26Z"/><rect class="cls-1" x="264.07" y="233" width="336.87" height="399.01"/><path class="cls-2" d="M600.51,233.42c-28.82.81-57.23,1.46-85.49,2.09l-42.24.88-42,.76c-27.9.35-55.74.83-83.48,1l-41.62.27H284.88l-20.81-.08,5.31-5.31c-.13,16.63-.28,33.25-.59,49.88s-.58,33.25-.93,49.87l-1,49.88-.42,24.94-.29,24.94c-.22,16.62-.25,33.25-.28,49.87l.16,49.88c.23,33.25.73,66.5,1.32,99.75l-3.29-3.28c28.07-.47,56.15-1.05,84.22-1.43l21-.29,21.06-.2,42.1-.36,84.22-.57,42.11-.25,42.11-.07L594.49,632c0-32.87.22-65.72.52-98.62l.61-49.43.34-24.75.41-24.81.89-49.78,1-50.05Zm.85-.84,1.18,49,1.07,49.38,1,49.71.88,50,.42,25.06.34,25.13.61,50.33c.3,33.59.54,67.25.52,100.88v6.46h-6.44l-42.11-.07-42.11-.25-84.22-.57-42.1-.36-21.06-.2-21-.29c-28.07-.38-56.15-1-84.22-1.42l-3.34-.06.06-3.23c.59-33.25,1.09-66.5,1.31-99.75l.17-49.88c0-16.62-.07-33.25-.29-49.87l-.28-24.94-.43-24.94-1-49.88q-.52-24.93-.93-49.87c-.31-16.63-.45-33.25-.59-49.88l0-5.29,5.35,0,21.3-.08h21.3l42.59.27c28.41.13,56.71.61,85,1l42.23.76,42,.88C546.31,231.12,574.05,231.77,601.36,232.58Z"/><polyline class="cls-1" points="284.69 501.76 367.43 406.98 418.33 472.36 496.44 369.24 580.32 487.72"/><path class="cls-2" d="M284.24,501.36c6-8.7,12.27-17.12,18.65-25.47s12.94-16.54,19.59-24.65,13.38-16.16,20.22-24.1,13.84-15.75,21.13-23.3l4.17-4.32,3.2,4.52c4,5.65,7.89,11.36,11.79,17.08l5.86,8.57,5.93,8.51q6,8.46,12.27,16.69c4.19,5.5,8.49,10.9,12.83,16.27l-3.11,0c6.34-8.72,12.45-17.62,18.5-26.56s12-17.93,18.22-26.76,12.51-17.58,18.84-26.31,12.68-17.44,19-26.15l5.09-7,5.19,7.15q10.65,14.69,20.87,29.69c6.82,10,13.48,20.1,20.15,30.2l9.85,15.26,9.67,15.39c6.37,10.31,12.65,20.68,18.63,31.27l-1,.69c-8-9.15-15.7-18.53-23.31-28l-11.3-14.23L534.1,431.51c-7.32-9.64-14.64-19.28-21.8-29s-14.18-19.6-21.06-29.56l10.28.17c-6.67,8.47-13.3,17-20,25.41s-13.39,16.9-20.22,25.25-13.88,16.54-20.83,24.8-13.87,16.53-20.55,25l-1.61,2-1.5-2c-4.15-5.53-8.33-11-12.63-16.43s-8.68-10.74-13.17-16l-6.8-7.83-6.87-7.78c-4.58-5.18-9.17-10.36-13.66-15.62l7.37.21c-6.49,8.25-13.26,16.26-20.23,24.09s-14,15.6-21.15,23.29-14.41,15.26-21.79,22.73-14.9,14.83-22.72,21.92Z"/><circle class="cls-1" cx="336.36" cy="340" r="29"/><path class="cls-2" d="M366,340a52.28,52.28,0,0,1-1.41,11.68l-.83,2.95c-.32,1-.7,1.95-1.07,2.94s-.91,1.9-1.38,2.88-1.11,1.84-1.7,2.76a25.38,25.38,0,0,1-10.08,8.5A26.09,26.09,0,0,1,336.36,374,28.89,28.89,0,0,1,324,369.85a44.38,44.38,0,0,1-16.29-18A39.32,39.32,0,0,1,304.07,340a30.59,30.59,0,0,1,1-12.95,31,31,0,0,1,6.73-11.57,33.75,33.75,0,0,1,11-8.08,31.21,31.21,0,0,1,26.83.44,26.72,26.72,0,0,1,10,8.83,34.79,34.79,0,0,1,5,11.61A49.24,49.24,0,0,1,366,340Zm-1.2,0a19.84,19.84,0,0,0-3.11-10.48,23,23,0,0,0-7.61-7.2,36.65,36.65,0,0,0-8.81-3.74,28.06,28.06,0,0,0-8.87-1.17,28.84,28.84,0,0,0-8.69,1.6,24.77,24.77,0,0,0-7.81,4.49,27.92,27.92,0,0,0-5.83,7.25,27.62,27.62,0,0,0-3.39,9.25,21.49,21.49,0,0,0,.79,10.32,20.7,20.7,0,0,0,5.79,8.82,20,20,0,0,0,9.31,4.59,30.21,30.21,0,0,0,9.83.27,43.63,43.63,0,0,0,9.06-2.13,43.16,43.16,0,0,0,8.74-4.07l2.12-1.45c.65-.56,1.34-1.11,2-1.7s1.25-1.27,1.86-1.94,1.11-1.43,1.6-2.19A19.5,19.5,0,0,0,364.76,340Z"/></g></g></svg>